<svg xmlns="http://www.w3.org/2000/svg" width="23" height="23" viewBox="0 0 23 23" fill="none"><g clip-path="url(#clip0_2_147)"><path d="M19.0952 4.6524C17.6874 4.00648 16.1778 3.53057 14.5994 3.25798C14.5707 3.25272 14.542 3.26587 14.5272 3.29215C14.333 3.63747 14.118 4.08793 13.9674 4.44201C12.2697 4.18784 10.5807 4.18784 8.9179 4.44201C8.76726 4.08008 8.54441 3.63747 8.34937 3.29215C8.33458 3.26674 8.30585 3.25358 8.27712 3.25798C6.69961 3.52967 5.19001 4.00558 3.78135 4.6524C3.76914 4.65766 3.7587 4.66642 3.75176 4.67781C0.888371 8.95568 0.103933 13.1284 0.488732 17.2494C0.490458 17.2695 0.501803 17.2888 0.517463 17.3011C2.40665 18.6885 4.23668 19.5307 6.03269 20.089C6.06142 20.0978 6.09187 20.0873 6.11016 20.0636C6.535 19.4834 6.91371 18.8717 7.23842 18.2283C7.25757 18.1907 7.23928 18.146 7.20011 18.1311C6.5994 17.9032 6.02742 17.6253 5.47719 17.3099C5.43366 17.2845 5.43017 17.2222 5.47024 17.1924C5.58603 17.1057 5.70185 17.0154 5.81242 16.9242C5.83244 16.9076 5.8603 16.9041 5.88381 16.9145C9.49851 18.5649 13.4119 18.5649 16.9839 16.9145C17.0074 16.9032 17.0353 16.9067 17.0561 16.9233C17.1668 17.0145 17.2825 17.1056 17.3992 17.1924C17.4392 17.2222 17.4366 17.2844 17.3931 17.3098C16.8429 17.6315 16.2709 17.9032 15.6693 18.1302C15.6301 18.145 15.6127 18.1906 15.6319 18.2283C15.9636 18.8707 16.3423 19.4825 16.7593 20.0627C16.7767 20.0872 16.8081 20.0978 16.8368 20.089C18.6415 19.5307 20.4715 18.6884 22.3607 17.301C22.3773 17.2888 22.3877 17.2704 22.3895 17.2502C22.85 12.4859 21.6181 8.34738 19.1238 4.67863C19.1178 4.66642 19.1074 4.65766 19.0952 4.6524ZM7.7783 14.7401C6.69004 14.7401 5.79331 13.741 5.79331 12.514C5.79331 11.2869 6.67261 10.2879 7.7783 10.2879C8.89262 10.2879 9.78068 11.2957 9.76325 12.514C9.76325 13.741 8.88391 14.7401 7.7783 14.7401ZM15.1174 14.7401C14.0292 14.7401 13.1324 13.741 13.1324 12.514C13.1324 11.2869 14.0117 10.2879 15.1174 10.2879C16.2318 10.2879 17.1198 11.2957 17.1024 12.514C17.1024 13.741 16.2318 14.7401 15.1174 14.7401Z" fill="white"></path></g><defs><clipPath id="clip0_2_147"><rect width="22.0871" height="22.0871" fill="white" transform="translate(0.397217 0.630859)"></rect></clipPath></defs></svg>