<svg xmlns="http://www.w3.org/2000/svg" width="32" height="23" viewBox="0 0 32 23" fill="none"><path d="M30.9916 4.08697C30.628 2.73552 29.5625 1.67019 28.2113 1.30629C25.7427 0.630859 15.8683 0.630859 15.8683 0.630859C15.8683 0.630859 5.99419 0.630859 3.52562 1.28068C2.20037 1.6442 1.10885 2.73572 0.745336 4.08697C0.0957031 6.55534 0.0957031 11.6744 0.0957031 11.6744C0.0957031 11.6744 0.0957031 16.8193 0.745336 19.2619C1.10924 20.6131 2.17437 21.6785 3.52582 22.0424C6.02018 22.718 15.8686 22.718 15.8686 22.718C15.8686 22.718 25.7427 22.718 28.2113 22.0682C29.5627 21.7044 30.628 20.6391 30.9919 19.2879C31.6414 16.8193 31.6414 11.7004 31.6414 11.7004C31.6414 11.7004 31.6674 6.55534 30.9916 4.08697ZM12.7245 16.4036V6.94523L20.9355 11.6744L12.7245 16.4036Z" fill="white"></path></svg>