<svg xmlns="http://www.w3.org/2000/svg" width="23" height="23" viewBox="0 0 23 23" fill="none"><path d="M22.347 22.0872V13.9978C22.347 10.0221 21.4912 6.98511 16.8529 6.98511C14.6166 6.98511 13.1257 8.1999 12.5183 9.35947H12.4631V7.34402H8.07324V22.0872H12.6563V14.7708C12.6563 12.8382 13.0152 10.9884 15.3896 10.9884C17.7364 10.9884 17.764 13.1695 17.764 14.8813V22.0596H22.347V22.0872Z" fill="white"></path><path d="M0.618774 7.34375H5.20185V22.0869H0.618774V7.34375Z" fill="white"></path><path d="M2.91046 0C1.44719 0 0.26001 1.18718 0.26001 2.65045C0.26001 4.11373 1.44719 5.32852 2.91046 5.32852C4.37374 5.32852 5.56092 4.11373 5.56092 2.65045C5.56092 1.18718 4.37374 0 2.91046 0Z" fill="white"></path></svg>